Coordinates
version=1
nRows=17
nColumns=36
inDegrees=yes

Units are S.I. units (second, meters, Newtons, ...)
If the header above contains a line with 'inDegrees', this indicates whether rotational values are in degrees (yes) or radians (no).

endheader
time	pelvis_tilt	pelvis_list	pelvis_rotation	pelvis_tx	pelvis_ty	pelvis_tz	hip_flexion_r	hip_adduction_r	hip_rotation_r	knee_angle_r	knee_angle_r_beta	ankle_angle_r	subtalar_angle_r	mtp_angle_r	hip_flexion_l	hip_adduction_l	hip_rotation_l	knee_angle_l	knee_angle_l_beta	ankle_angle_l	subtalar_angle_l	mtp_angle_l	lumbar_extension	lumbar_bending	lumbar_rotation	arm_flex_r	arm_add_r	arm_rot_r	elbow_flex_r	pro_sup_r	arm_flex_l	arm_add_l	arm_rot_l	elbow_flex_l	pro_sup_l
      4.93333330	     -0.86098286	     -0.79445131	     -2.25371031	      0.43370112	      1.00213418	     -0.01847692	      0.41332215	     -3.20557089	      7.61603747	      7.64728272	      0.13347026	      4.45583639	    -10.30780946	     -7.49999987	     -2.10609885	     -4.88327571	      0.11420723	      3.78426399	      0.06604787	      5.82907542	     -4.57671996	     -7.49999987	     -6.16306077	     -2.74483076	     -4.68332796	     -1.51133268	     -2.56788536	      4.77956074	     41.37867070	     74.78409754	     -4.07106054	    -13.21119890	    -10.12027618	     50.14888098	     83.30258207
      4.95000000	     -0.91647115	     -0.77504801	     -2.50137115	      0.43454363	      1.00235252	     -0.01830602	      0.59855917	     -3.38596407	      7.68226464	      7.72724953	      0.13486595	      4.29558818	    -10.09022534	     -7.49999987	     -2.22798818	     -4.68573408	     -0.11342954	      3.47067009	      0.06057462	      5.69467172	     -4.51032565	     -7.49999987	     -5.91371138	     -2.70940286	     -4.42574321	     -1.57190520	     -2.85218161	      5.26415258	     41.25621220	     74.89683752	     -3.50359523	    -13.36200060	     -8.90746635	     48.22719886	     84.44138021
      4.96666670	     -0.94470847	     -0.76933680	     -2.64550781	      0.42965178	      1.00565749	     -0.02282074	      0.81032676	     -3.59884785	      7.64644989	      7.84085285	      0.13684870	      4.16150310	     -9.85181160	     -7.49999987	     -2.21773214	     -4.47951512	     -0.18064870	      3.28414691	      0.05731918	      5.59422847	     -4.53175594	     -7.49999987	     -5.96198471	     -2.62697740	     -4.38848954	     -1.38244542	     -2.91860792	      4.98783536	     40.84616823	     75.16192209	     -3.14900306	    -13.13166297	     -8.83858005	     47.14501516	     85.12282254
      4.98333330	     -1.01631546	     -0.69542277	     -2.81685303	      0.42512896	      1.00562931	     -0.03606454	      1.26906163	     -4.01261802	      7.67765514	      8.14947805	      0.14223522	      3.93471661	     -9.89344527	     -7.49999987	     -2.01822580	     -4.06361442	     -0.17438021	      3.18885105	      0.05565595	      5.56066575	     -4.83567065	     -7.49999987	     -6.11036675	     -2.51703812	     -4.46829323	     -1.33918998	     -3.06187675	      4.70808672	     40.81030111	     74.67363949	     -2.73897738	    -12.98541595	     -7.92023875	     46.13364592	     84.70890266
      5.00000000	     -0.97183636	     -0.54421317	     -2.94950586	      0.42480140	      1.00851381	     -0.04560924	      1.56801494	     -4.61728500	      7.67117405	      8.38964338	      0.14642690	      3.56534313	     -9.70683124	     -7.49999987	     -1.92613046	     -3.49340559	     -0.25515578	      3.13696853	      0.05475043	      5.50469533	     -4.91664113	     -7.49999987	     -6.44741977	     -2.45957688	     -4.82535037	     -1.29481776	     -3.28496101	      4.57602570	     40.77537269	     74.68887348	     -2.72886297	    -12.58611035	     -7.74911913	     45.91021527	     84.77810080
      5.01666670	     -0.78394452	     -0.41385536	     -3.13839574	      0.42922428	      1.00904354	     -0.04029219	      1.77375615	     -5.07530495	      7.72888764	      8.81193069	      0.15379720	      3.53902879	     -9.35254667	     -7.49999987	     -2.11552408	     -3.00415139	     -0.32265884	      3.06286191	      0.05345702	      5.26407934	     -5.37724350	     -7.49999987	     -6.83921402	     -2.44486408	     -5.15442808	     -1.41447385	     -3.08328601	      4.09296372	     40.49365996	     73.47054216	     -2.62945159	    -12.44020279	     -7.41645223	     44.60941150	     83.01032349
      5.03333330	     -0.90882285	     -0.31255536	     -3.18740981	      0.43273618	      1.00538531	     -0.04500134	      2.07937836	     -5.51501047	      7.60914797	      9.03047435	      0.15761151	      3.38131824	     -9.00147267	     -7.49999987	     -1.95376751	     -2.55451724	     -0.06641887	      3.10141908	      0.05412997	      5.17275070	     -5.88184793	     -7.49999987	     -6.46753949	     -2.35649244	     -4.81018225	     -2.19393442	     -2.79701298	      2.04590139	     39.83117347	     78.18114458	     -2.10967698	    -12.26846522	     -6.70510443	     42.39376430	     88.97440563
      5.05000000	     -0.86378712	     -0.18383671	     -3.36082639	      0.42864433	      1.00501947	     -0.04859792	      2.25753817	     -5.97162460	      7.67663822	      9.29386727	      0.16220858	      3.46389462	     -8.89525499	     -7.49999987	     -2.01946234	     -2.09126409	     -0.06086194	      3.02787465	      0.05284638	      5.19313666	     -6.22364622	     -7.49999987	     -6.51317536	     -2.30013007	     -4.97617501	     -2.39479916	     -2.76885194	      1.93996410	     39.14558906	     78.25310374	     -2.28601687	    -12.10720648	     -6.73175833	     41.22380554	     88.98617012
      5.06666670	     -0.67722042	     -0.12182743	     -3.47055135	      0.42808814	      1.00523053	     -0.04869018	      2.21082243	     -6.24991859	      7.82530328	      9.47081835	      0.16529696	      3.50535365	     -9.00173775	     -7.49999987	     -2.26028402	     -1.78357174	      0.10833095	      3.07076931	      0.05359503	      5.27270557	     -6.50765046	     -7.49999987	     -6.64913056	     -2.32598948	     -5.03575501	     -2.56809606	     -2.58773493	      1.66123879	     38.25338142	     78.04307871	     -2.32992111	    -11.99085221	     -6.75598488	     39.87904801	     88.62309671
      5.08333330	     -0.61231886	     -0.05081810	     -3.54162438	      0.42398903	      1.01132838	     -0.05247787	      2.38650362	     -6.54296438	      7.92130055	      9.74398922	      0.17006469	      3.51007036	     -9.13487202	     -7.49999987	     -2.29137747	     -1.44741432	      0.31532663	      3.02731163	      0.05283656	      5.09918453	     -6.83763184	     -7.49999987	     -6.78895782	     -2.31046047	     -5.06671194	     -2.53523580	     -2.51487697	      1.37212585	     37.31116692	     78.13203659	     -2.20374995	    -11.82908980	     -6.73360110	     38.37592557	     88.65423733
      5.10000000	     -0.40631993	      0.00057023	     -3.59524003	      0.42355103	      1.00517681	     -0.05246986	      2.35127472	     -6.74590342	      8.11430335	      9.85883793	      0.17206918	      3.51457335	     -9.30218340	     -7.49999987	     -2.33702166	     -1.17624433	      0.50138986	      3.22232153	      0.05624012	      5.24483495	     -7.17584384	     -7.49999987	     -7.13284245	     -2.36229943	     -5.11100706	     -2.44615475	     -2.42114561	      1.00157643	     36.28281037	     78.21515259	     -1.99119432	    -11.74748323	     -6.74571144	     37.26772221	     88.74210979
      5.11666670	     -0.38046257	      0.04209345	     -3.61274645	      0.42757909	      1.00483176	     -0.05689045	      2.47431988	     -6.92496583	      8.18209999	     10.09797595	      0.17624293	      3.52904912	     -9.26479822	     -7.49999987	     -2.22628628	     -0.96475055	      0.61492091	      3.45109347	      0.06023294	      5.23192499	     -7.36382419	     -7.49999987	     -7.00574166	     -2.41180994	     -5.10715424	     -2.47575200	     -2.37629993	      0.24603332	     34.70657159	     78.28087658	     -1.89637394	    -11.45993617	     -6.83968574	     35.75783308	     88.80781235
      5.13333330	     -0.21367516	      0.07914518	     -3.69396359	      0.42741697	      1.00197547	     -0.05738768	      2.42604508	     -7.07926495	      8.34189963	     10.37153090	      0.18101736	      3.71863319	     -9.51394500	     -7.49999987	     -2.25589513	     -0.74571729	      0.66945736	      3.74223346	      0.06531430	      5.46276777	     -7.57155327	     -7.49999987	     -7.20819205	     -2.53450823	     -5.07882641	     -2.54683463	     -2.43273519	     -0.38148832	     33.64375218	     78.10091186	     -1.94852973	    -11.35414561	     -7.04473923	     34.73254336	     88.49366009
      5.15000000	     -0.10908929	      0.10990995	     -3.70265741	      0.42763233	      1.00594943	     -0.05730464	      2.37045184	     -7.17794200	      8.47463384	     10.55141195	      0.18415688	      3.94515866	     -9.67458647	     -7.49999987	     -2.26410224	     -0.61219529	      0.74969583	      4.00668970	      0.06992993	      5.61377924	     -7.65948130	     -7.49999987	     -7.38308533	     -2.71341771	     -5.07454410	     -2.62874638	     -2.32682294	     -1.22800272	     32.42752358	     75.74131085	     -2.04328148	    -11.27670002	     -7.36672475	     33.55705889	     85.06572155
      5.16666670	     -0.21226693	      0.17744862	     -3.68379763	      0.42293721	      1.00199438	     -0.06165055	      2.65548343	     -7.35091932	      8.69823466	     10.81317499	      0.18872551	      4.03240634	    -10.20548392	     -7.49999987	     -1.92856330	     -0.39687340	      1.01047820	      4.30768612	      0.07518331	      5.62720264	     -8.27302723	     -7.49999987	     -7.32329865	     -2.87645235	     -5.07168895	     -2.63906447	     -2.37581317	     -1.70257500	     31.29144314	     76.11249631	     -2.02229128	    -11.29221952	     -7.53760796	     32.16730763	     85.40131707
      5.18333330	     -0.10354028	      0.24783551	     -3.70293083	      0.42284941	      1.00570682	     -0.06108522	      2.58475874	     -7.48932265	      8.92295088	     10.81410818	      0.18874179	      4.16068862	    -10.45606657	     -7.49999987	     -1.95490855	     -0.22689830	      1.10523134	      4.38390764	      0.07651362	      5.60359153	     -8.45025507	     -7.49999987	     -7.74277307	     -3.08427950	     -5.07512777	     -2.67356182	     -2.31570301	     -2.18248763	     30.60198051	     75.15639161	     -2.06288543	    -11.33452201	     -7.83391736	     31.40265986	     83.91589902
      5.20000000	     -0.00524750	      0.25847588	     -3.75877701	      0.42229212	      1.00238996	     -0.06160965	      2.58436982	     -7.58639584	      9.07415201	     10.85345617	      0.18942855	      4.26205037	    -10.69523562	     -7.49999987	     -1.85994264	     -0.11433003	      1.03622190	      4.62881298	      0.08078803	      5.84348524	     -8.39879830	     -7.49999987	     -8.18764297	     -3.18446668	     -5.17243078	     -2.66281262	     -2.22805480	     -2.63691371	     30.04390453	     72.92599489	     -2.04183617	    -11.34484879	     -8.08350251	     30.70552707	     80.70851319
